<mxfile host="app.diagrams.net" modified="2023-02-06T09:31:22.944Z" agent="5.0 (Windows NT 10.0; Win64; x64) AppleWebKit/537.36 (KHTML, like Gecko) Chrome/109.0.0.0 Safari/537.36" etag="124GkHlmaRc2BeQT5oDI" version="20.8.16" type="github">
  <diagram id="kgpKYQtTHZ0yAKxKKP6v" name="Page-1">
    <mxGraphModel dx="1434" dy="764" grid="1" gridSize="10" guides="1" tooltips="1" connect="1" arrows="1" fold="1" page="1" pageScale="1" pageWidth="850" pageHeight="1100" math="0" shadow="0">
      <root>
        <mxCell id="0" />
        <mxCell id="1" parent="0" />
        <mxCell id="3nuBFxr9cyL0pnOWT2aG-1" value="客户端" style="shape=umlLifeline;perimeter=lifelinePerimeter;container=1;collapsible=0;recursiveResize=0;rounded=1;shadow=0;strokeWidth=1;labelBackgroundColor=none;" parent="1" vertex="1">
          <mxGeometry x="70" y="70" width="100" height="330" as="geometry" />
        </mxCell>
        <mxCell id="3nuBFxr9cyL0pnOWT2aG-2" value="" style="points=[];perimeter=orthogonalPerimeter;rounded=1;shadow=0;strokeWidth=1;labelBackgroundColor=none;" parent="3nuBFxr9cyL0pnOWT2aG-1" vertex="1">
          <mxGeometry x="45" y="70" width="10" height="190" as="geometry" />
        </mxCell>
        <mxCell id="3nuBFxr9cyL0pnOWT2aG-5" value="服务端" style="shape=umlLifeline;perimeter=lifelinePerimeter;container=1;collapsible=0;recursiveResize=0;rounded=1;shadow=0;strokeWidth=1;labelBackgroundColor=none;" parent="1" vertex="1">
          <mxGeometry x="400" y="70" width="160" height="330" as="geometry" />
        </mxCell>
        <mxCell id="3nuBFxr9cyL0pnOWT2aG-6" value="" style="points=[];perimeter=orthogonalPerimeter;rounded=1;shadow=0;strokeWidth=1;labelBackgroundColor=none;" parent="3nuBFxr9cyL0pnOWT2aG-5" vertex="1">
          <mxGeometry x="45" y="80" width="10" height="160" as="geometry" />
        </mxCell>
        <mxCell id="ObNGvsx8ZHt5MPZp7QAw-8" value="" style="points=[];perimeter=orthogonalPerimeter;rounded=1;shadow=0;strokeWidth=1;labelBackgroundColor=none;" parent="3nuBFxr9cyL0pnOWT2aG-5" vertex="1">
          <mxGeometry x="55" y="120" width="10" height="80" as="geometry" />
        </mxCell>
        <mxCell id="ObNGvsx8ZHt5MPZp7QAw-6" style="edgeStyle=orthogonalEdgeStyle;rounded=1;orthogonalLoop=1;jettySize=auto;html=1;exitX=0.1;exitY=0.25;exitDx=0;exitDy=0;exitPerimeter=0;entryX=0.5;entryY=0.909;entryDx=0;entryDy=0;entryPerimeter=0;labelBackgroundColor=none;fontColor=default;" parent="3nuBFxr9cyL0pnOWT2aG-5" target="3nuBFxr9cyL0pnOWT2aG-5" edge="1">
          <mxGeometry relative="1" as="geometry">
            <mxPoint x="466" y="300" as="sourcePoint" />
            <mxPoint x="65" y="300" as="targetPoint" />
          </mxGeometry>
        </mxCell>
        <mxCell id="ObNGvsx8ZHt5MPZp7QAw-7" value="第五步：callback，客户端支付之后，微信回调支付成功或者失败" style="edgeLabel;html=1;align=center;verticalAlign=middle;resizable=0;points=[];rounded=1;labelBackgroundColor=none;" parent="ObNGvsx8ZHt5MPZp7QAw-6" vertex="1" connectable="0">
          <mxGeometry x="-0.1148" relative="1" as="geometry">
            <mxPoint x="-17" y="-10" as="offset" />
          </mxGeometry>
        </mxCell>
        <mxCell id="3nuBFxr9cyL0pnOWT2aG-7" value="return" style="verticalAlign=bottom;endArrow=open;dashed=1;endSize=8;exitX=0;exitY=0.95;shadow=0;strokeWidth=1;rounded=1;labelBackgroundColor=none;fontColor=default;" parent="1" source="3nuBFxr9cyL0pnOWT2aG-6" target="3nuBFxr9cyL0pnOWT2aG-2" edge="1">
          <mxGeometry relative="1" as="geometry">
            <mxPoint x="275" y="236" as="targetPoint" />
          </mxGeometry>
        </mxCell>
        <mxCell id="3nuBFxr9cyL0pnOWT2aG-8" value="第一步：获取用户OpenId；&#xa;1. 将下单所需参数给到服务端；&#xa;2. 需要服务端调用微信openId接口，返回code" style="verticalAlign=bottom;endArrow=block;entryX=0;entryY=0;shadow=0;strokeWidth=1;align=left;labelBackgroundColor=none;rounded=1;fontColor=default;" parent="1" source="3nuBFxr9cyL0pnOWT2aG-2" target="3nuBFxr9cyL0pnOWT2aG-6" edge="1">
          <mxGeometry x="-0.7187" relative="1" as="geometry">
            <mxPoint x="275" y="160" as="sourcePoint" />
            <mxPoint as="offset" />
          </mxGeometry>
        </mxCell>
        <mxCell id="ObNGvsx8ZHt5MPZp7QAw-1" value="微信服务端" style="shape=umlLifeline;perimeter=lifelinePerimeter;container=1;collapsible=0;recursiveResize=0;rounded=1;shadow=0;strokeWidth=1;labelBackgroundColor=none;" parent="1" vertex="1">
          <mxGeometry x="820" y="70" width="100" height="330" as="geometry" />
        </mxCell>
        <mxCell id="ObNGvsx8ZHt5MPZp7QAw-2" value="" style="points=[];perimeter=orthogonalPerimeter;rounded=1;shadow=0;strokeWidth=1;labelBackgroundColor=none;" parent="ObNGvsx8ZHt5MPZp7QAw-1" vertex="1">
          <mxGeometry x="45" y="80" width="10" height="160" as="geometry" />
        </mxCell>
        <mxCell id="ObNGvsx8ZHt5MPZp7QAw-4" style="edgeStyle=orthogonalEdgeStyle;rounded=1;orthogonalLoop=1;jettySize=auto;html=1;exitX=1.5;exitY=0.063;exitDx=0;exitDy=0;exitPerimeter=0;entryX=-0.4;entryY=0.069;entryDx=0;entryDy=0;entryPerimeter=0;labelBackgroundColor=none;fontColor=default;" parent="1" source="3nuBFxr9cyL0pnOWT2aG-6" target="ObNGvsx8ZHt5MPZp7QAw-2" edge="1">
          <mxGeometry relative="1" as="geometry">
            <mxPoint x="500" y="220" as="sourcePoint" />
          </mxGeometry>
        </mxCell>
        <mxCell id="ObNGvsx8ZHt5MPZp7QAw-5" value="第二步：根据需求，考虑静默授权或者非静默授权，&lt;br&gt;然后调用微信API，微信会自动在需要跳转的URL上，&lt;br&gt;拼接上code，" style="edgeLabel;html=1;align=left;verticalAlign=middle;resizable=0;points=[];labelBackgroundColor=none;rounded=1;" parent="ObNGvsx8ZHt5MPZp7QAw-4" vertex="1" connectable="0">
          <mxGeometry x="-0.8664" relative="1" as="geometry">
            <mxPoint x="53" y="-30" as="offset" />
          </mxGeometry>
        </mxCell>
        <mxCell id="ObNGvsx8ZHt5MPZp7QAw-15" value="微信JSAPI支付流程" style="text;html=1;strokeColor=#82b366;fillColor=#d5e8d4;align=center;verticalAlign=middle;whiteSpace=wrap;rounded=1;fontStyle=1;fontSize=14;labelBackgroundColor=none;" parent="1" vertex="1">
          <mxGeometry x="70" y="30" width="190" height="30" as="geometry" />
        </mxCell>
        <mxCell id="ObNGvsx8ZHt5MPZp7QAw-16" style="edgeStyle=orthogonalEdgeStyle;rounded=1;orthogonalLoop=1;jettySize=auto;html=1;entryX=0.5;entryY=0.474;entryDx=0;entryDy=0;entryPerimeter=0;labelBackgroundColor=none;fontSize=14;fontColor=default;" parent="1" source="3nuBFxr9cyL0pnOWT2aG-6" target="3nuBFxr9cyL0pnOWT2aG-2" edge="1">
          <mxGeometry relative="1" as="geometry" />
        </mxCell>
        <mxCell id="ObNGvsx8ZHt5MPZp7QAw-17" value="第四步：&lt;br&gt;服务端重定向前端指定的页面；&lt;br style=&quot;font-size: 12px;&quot;&gt;前端唤起支付窗口进行支付；" style="edgeLabel;html=1;align=left;verticalAlign=middle;resizable=0;points=[];fontSize=12;rounded=1;labelBackgroundColor=none;" parent="ObNGvsx8ZHt5MPZp7QAw-16" vertex="1" connectable="0">
          <mxGeometry x="0.0987" y="-1" relative="1" as="geometry">
            <mxPoint x="-94" y="-29" as="offset" />
          </mxGeometry>
        </mxCell>
        <mxCell id="ObNGvsx8ZHt5MPZp7QAw-18" style="edgeStyle=orthogonalEdgeStyle;rounded=1;orthogonalLoop=1;jettySize=auto;html=1;entryX=0.5;entryY=0.909;entryDx=0;entryDy=0;entryPerimeter=0;exitX=0;exitY=0.256;exitDx=0;exitDy=0;exitPerimeter=0;labelBackgroundColor=none;fontColor=default;" parent="1" source="ObNGvsx8ZHt5MPZp7QAw-2" edge="1">
          <mxGeometry relative="1" as="geometry">
            <mxPoint x="860" y="190" as="sourcePoint" />
            <mxPoint x="460" y="190.00000000000003" as="targetPoint" />
          </mxGeometry>
        </mxCell>
        <mxCell id="ObNGvsx8ZHt5MPZp7QAw-19" value="callback，微信通过静默授权给的URL，自动带上code调用" style="edgeLabel;html=1;align=center;verticalAlign=middle;resizable=0;points=[];rounded=1;labelBackgroundColor=none;" parent="ObNGvsx8ZHt5MPZp7QAw-18" vertex="1" connectable="0">
          <mxGeometry x="-0.1148" relative="1" as="geometry">
            <mxPoint x="-17" y="-10" as="offset" />
          </mxGeometry>
        </mxCell>
        <mxCell id="ObNGvsx8ZHt5MPZp7QAw-22" value="第三步：服务端操作：&lt;br style=&quot;border-color: var(--border-color);&quot;&gt;&lt;span style=&quot;&quot;&gt;1. 根据Code，获取当前用户的微信openId；&lt;/span&gt;&lt;br style=&quot;border-color: var(--border-color);&quot;&gt;&lt;span style=&quot;&quot;&gt;2. 根据之前的请求参数，执行业务逻辑，如创建订单等；&lt;/span&gt;&lt;br style=&quot;border-color: var(--border-color);&quot;&gt;&lt;span style=&quot;&quot;&gt;3. 调用微信API，创建预支付订单；&lt;/span&gt;&lt;br style=&quot;border-color: var(--border-color);&quot;&gt;&lt;span style=&quot;&quot;&gt;4. 创建成功之后，根据前端给的URL链接，&lt;/span&gt;&lt;br style=&quot;border-color: var(--border-color);&quot;&gt;&lt;span style=&quot;&quot;&gt;拼接上从微信返回的参数，使用response.sendRedirect(url)，&lt;/span&gt;&lt;br style=&quot;border-color: var(--border-color);&quot;&gt;&lt;span style=&quot;&quot;&gt;重定向到此路径&lt;/span&gt;" style="text;html=1;strokeColor=none;fillColor=none;align=left;verticalAlign=middle;whiteSpace=wrap;rounded=1;labelBackgroundColor=none;" parent="1" vertex="1">
          <mxGeometry x="500" y="210" width="340" height="110" as="geometry" />
        </mxCell>
        <mxCell id="jvdO0m-nVv5cFYctiuDo-1" value="客户端" style="shape=umlLifeline;perimeter=lifelinePerimeter;container=1;collapsible=0;recursiveResize=0;rounded=1;shadow=0;strokeWidth=1;labelBackgroundColor=none;" vertex="1" parent="1">
          <mxGeometry x="70" y="490" width="100" height="330" as="geometry" />
        </mxCell>
        <mxCell id="jvdO0m-nVv5cFYctiuDo-2" value="" style="points=[];perimeter=orthogonalPerimeter;rounded=1;shadow=0;strokeWidth=1;labelBackgroundColor=none;arcSize=0;" vertex="1" parent="jvdO0m-nVv5cFYctiuDo-1">
          <mxGeometry x="45" y="70" width="10" height="220" as="geometry" />
        </mxCell>
        <mxCell id="jvdO0m-nVv5cFYctiuDo-4" value="服务端" style="shape=umlLifeline;perimeter=lifelinePerimeter;container=1;collapsible=0;recursiveResize=0;rounded=1;shadow=0;strokeWidth=1;labelBackgroundColor=none;" vertex="1" parent="1">
          <mxGeometry x="360" y="490" width="100" height="330" as="geometry" />
        </mxCell>
        <mxCell id="jvdO0m-nVv5cFYctiuDo-5" value="" style="points=[];perimeter=orthogonalPerimeter;rounded=1;shadow=0;strokeWidth=1;labelBackgroundColor=none;" vertex="1" parent="jvdO0m-nVv5cFYctiuDo-4">
          <mxGeometry x="45" y="70" width="10" height="210" as="geometry" />
        </mxCell>
        <mxCell id="jvdO0m-nVv5cFYctiuDo-20" value="" style="points=[];perimeter=orthogonalPerimeter;rounded=1;shadow=0;strokeWidth=1;labelBackgroundColor=none;" vertex="1" parent="jvdO0m-nVv5cFYctiuDo-4">
          <mxGeometry x="50" y="190" width="10" height="80" as="geometry" />
        </mxCell>
        <mxCell id="jvdO0m-nVv5cFYctiuDo-7" value="微信服务端" style="shape=umlLifeline;perimeter=lifelinePerimeter;container=1;collapsible=0;recursiveResize=0;rounded=1;shadow=0;strokeWidth=1;labelBackgroundColor=none;" vertex="1" parent="1">
          <mxGeometry x="650" y="490" width="100" height="330" as="geometry" />
        </mxCell>
        <mxCell id="jvdO0m-nVv5cFYctiuDo-8" value="" style="points=[];perimeter=orthogonalPerimeter;rounded=1;shadow=0;strokeWidth=1;labelBackgroundColor=none;" vertex="1" parent="jvdO0m-nVv5cFYctiuDo-7">
          <mxGeometry x="45" y="70" width="10" height="210" as="geometry" />
        </mxCell>
        <mxCell id="jvdO0m-nVv5cFYctiuDo-10" style="edgeStyle=orthogonalEdgeStyle;rounded=0;orthogonalLoop=1;jettySize=auto;html=1;" edge="1" parent="1" source="jvdO0m-nVv5cFYctiuDo-2" target="jvdO0m-nVv5cFYctiuDo-4">
          <mxGeometry relative="1" as="geometry">
            <Array as="points">
              <mxPoint x="300" y="590" />
              <mxPoint x="300" y="590" />
            </Array>
          </mxGeometry>
        </mxCell>
        <mxCell id="jvdO0m-nVv5cFYctiuDo-13" value="第一步：&lt;br&gt;1. 将业务所需参数给到服务端，创建预支付订单" style="edgeLabel;html=1;align=left;verticalAlign=middle;resizable=0;points=[];" vertex="1" connectable="0" parent="jvdO0m-nVv5cFYctiuDo-10">
          <mxGeometry x="-0.6626" y="2" relative="1" as="geometry">
            <mxPoint x="-33" as="offset" />
          </mxGeometry>
        </mxCell>
        <mxCell id="jvdO0m-nVv5cFYctiuDo-14" style="edgeStyle=orthogonalEdgeStyle;rounded=0;orthogonalLoop=1;jettySize=auto;html=1;" edge="1" parent="1" source="jvdO0m-nVv5cFYctiuDo-5" target="jvdO0m-nVv5cFYctiuDo-7">
          <mxGeometry relative="1" as="geometry">
            <Array as="points">
              <mxPoint x="600" y="590" />
              <mxPoint x="600" y="590" />
            </Array>
          </mxGeometry>
        </mxCell>
        <mxCell id="jvdO0m-nVv5cFYctiuDo-15" value="第二步：&lt;br&gt;1. 调用微信API，创建预支付订单，&lt;br&gt;返回订单id，支付凭证，中转域名" style="edgeLabel;html=1;align=left;verticalAlign=middle;resizable=0;points=[];" vertex="1" connectable="0" parent="jvdO0m-nVv5cFYctiuDo-14">
          <mxGeometry x="-0.6672" y="-1" relative="1" as="geometry">
            <mxPoint x="11" y="-1" as="offset" />
          </mxGeometry>
        </mxCell>
        <mxCell id="jvdO0m-nVv5cFYctiuDo-25" value="微信客户端" style="shape=umlLifeline;perimeter=lifelinePerimeter;container=1;collapsible=0;recursiveResize=0;rounded=1;shadow=0;strokeWidth=1;labelBackgroundColor=none;" vertex="1" parent="1">
          <mxGeometry x="860" y="490" width="100" height="330" as="geometry" />
        </mxCell>
        <mxCell id="jvdO0m-nVv5cFYctiuDo-26" value="" style="points=[];perimeter=orthogonalPerimeter;rounded=1;shadow=0;strokeWidth=1;labelBackgroundColor=none;" vertex="1" parent="jvdO0m-nVv5cFYctiuDo-25">
          <mxGeometry x="45" y="70" width="10" height="210" as="geometry" />
        </mxCell>
        <mxCell id="jvdO0m-nVv5cFYctiuDo-27" value="\" style="edgeStyle=orthogonalEdgeStyle;rounded=0;orthogonalLoop=1;jettySize=auto;html=1;align=left;" edge="1" parent="1">
          <mxGeometry relative="1" as="geometry">
            <mxPoint x="125" y="669.5" as="sourcePoint" />
            <mxPoint x="909.5" y="669.5" as="targetPoint" />
            <Array as="points">
              <mxPoint x="520" y="670" />
              <mxPoint x="520" y="670" />
            </Array>
          </mxGeometry>
        </mxCell>
        <mxCell id="jvdO0m-nVv5cFYctiuDo-28" value="第三步：&lt;br&gt;客户端通过支付凭证，唤起支付，&lt;br&gt;用户输入支付密码之后返回响应" style="edgeLabel;html=1;align=left;verticalAlign=middle;resizable=0;points=[];" vertex="1" connectable="0" parent="jvdO0m-nVv5cFYctiuDo-27">
          <mxGeometry x="-0.9235" y="-1" relative="1" as="geometry">
            <mxPoint x="-15" y="-5" as="offset" />
          </mxGeometry>
        </mxCell>
        <mxCell id="jvdO0m-nVv5cFYctiuDo-31" style="edgeStyle=orthogonalEdgeStyle;rounded=0;orthogonalLoop=1;jettySize=auto;html=1;entryX=1.1;entryY=0.775;entryDx=0;entryDy=0;entryPerimeter=0;dashed=1;" edge="1" parent="1" source="jvdO0m-nVv5cFYctiuDo-8" target="jvdO0m-nVv5cFYctiuDo-20">
          <mxGeometry relative="1" as="geometry">
            <Array as="points">
              <mxPoint x="650" y="742" />
              <mxPoint x="650" y="742" />
            </Array>
          </mxGeometry>
        </mxCell>
        <mxCell id="jvdO0m-nVv5cFYctiuDo-33" value="第四步：&lt;br&gt;微信服务器通过回调url，返回支付结果" style="edgeLabel;html=1;align=left;verticalAlign=middle;resizable=0;points=[];" vertex="1" connectable="0" parent="jvdO0m-nVv5cFYctiuDo-31">
          <mxGeometry x="0.7153" y="-1" relative="1" as="geometry">
            <mxPoint x="10" as="offset" />
          </mxGeometry>
        </mxCell>
        <mxCell id="jvdO0m-nVv5cFYctiuDo-34" value="微信H5支付流程" style="text;html=1;strokeColor=#82b366;fillColor=#d5e8d4;align=center;verticalAlign=middle;whiteSpace=wrap;rounded=1;fontSize=14;fontStyle=1" vertex="1" parent="1">
          <mxGeometry x="70" y="450" width="135" height="30" as="geometry" />
        </mxCell>
      </root>
    </mxGraphModel>
  </diagram>
</mxfile>
